<svg xmlns="http://www.w3.org/2000/svg" viewBox="0 0 38 42"><path fill="#004280" d="M17.9.3c.7-.4 1.5-.4 2.2 0l16.8 9.4c.7.4 1.1 1.1 1.1 1.9v18.8c0 .8-.4 1.5-1.1 1.9l-16.8 9.4c-.7.4-1.5.4-2.2 0L1.1 32.3A2.1 2.1 0 0 1 0 30.4V11.6c0-.8.4-1.5 1.1-1.9L17.9.3z"/><path fill="#fff" fill-rule="evenodd" d="M19 7a14 14 0 1 1 0 28 14 14 0 0 1 0-28zm0 7a7 7 0 1 1 0 14 7 7 0 0 1 0-14z" clip-rule="evenodd"/><path fill="#004280" fill-rule="evenodd" d="M37.5 10.2c.8.8.4 2.1.5 3.1v17.4c0 .7-.5 1-1 .4L18.6 21l18.9-10.8z" clip-rule="evenodd"/></svg>